<?xml version="1.0" encoding="iso-8859-1"?>
<!-- Generator: Adobe Illustrator 19.0.0, SVG Export Plug-In . SVG Version: 6.00 Build 0)  -->
<svg version="1.1" id="Capa_1" xmlns="http://www.w3.org/2000/svg" xmlns:xlink="http://www.w3.org/1999/xlink" x="0px" y="0px"
	 viewBox="0 0 480.078 480.078" style="enable-background:new 0 0 480.078 480.078;" xml:space="preserve">
<g>
	<g>
		<path d="M477.81,234.366l0.024,0.056L245.754,2.342c-3.124-3.123-8.188-3.123-11.312,0L2.362,234.422
			c-3.124,3.13-3.118,8.2,0.012,11.324s8.2,3.118,11.324-0.012l26.4-26.456v252.8c0,4.418,3.582,8,8,8h384c4.418,0,8-3.582,8-8
			v-252.8l26.4,26.4c3.178,3.07,8.242,2.982,11.312-0.196C480.804,242.382,480.804,237.467,477.81,234.366z M296.098,464.078h-112
			v-120c0-30.928,25.072-56,56-56c30.928,0,56,25.072,56,56V464.078z M424.098,464.078h-112v-120c0-39.765-32.235-72-72-72
			c-39.764,0-72,32.235-72,72v120h-112v-260.8l184-184l184,184V464.078z"/>
	</g>
</g>
<g>
</g>
<g>
</g>
<g>
</g>
<g>
</g>
<g>
</g>
<g>
</g>
<g>
</g>
<g>
</g>
<g>
</g>
<g>
</g>
<g>
</g>
<g>
</g>
<g>
</g>
<g>
</g>
<g>
</g>
</svg>
