<svg height="512" viewBox="0 0 128 128" width="512" xmlns="http://www.w3.org/2000/svg"><g><path d="m100.593 98.746a19.337 19.337 0 0 1 -4.2-12.009v-27.878a32.442 32.442 0 0 0 -26.143-31.78v-10.016a7.75 7.75 0 1 0 -12.5 0v10.016a32.442 32.442 0 0 0 -26.142 31.78v27.878a19.337 19.337 0 0 1 -4.2 12.009 22.853 22.853 0 0 0 -4.965 14.191v8.563a1.75 1.75 0 0 0 1.75 1.75h79.616a1.75 1.75 0 0 0 1.75-1.75v-8.563a22.853 22.853 0 0 0 -4.966-14.191zm-36.593-90.496a4.25 4.25 0 1 1 -4.25 4.25 4.255 4.255 0 0 1 4.25-4.25zm-2.75 11.487a7.627 7.627 0 0 0 5.5 0v6.856c-.908-.077-1.823-.125-2.75-.125s-1.842.048-2.75.125zm-31.106 81.191a22.852 22.852 0 0 0 4.964-14.191v-27.878a28.892 28.892 0 0 1 57.784 0v27.878a22.852 22.852 0 0 0 4.964 14.191 19.336 19.336 0 0 1 4.06 9.822h-75.832a19.336 19.336 0 0 1 4.06-9.822zm-4.2 18.822v-5.5h76.116v5.5z"/><path d="m86.892 58.859a1.75 1.75 0 1 0 3.5 0 26.294 26.294 0 0 0 -1.392-8.476 1.75 1.75 0 1 0 -3.314 1.127 22.807 22.807 0 0 1 1.206 7.349z"/></g></svg>